<?xml version="1.0" standalone="no"?>
<!DOCTYPE svg PUBLIC "-//W3C//DTD SVG 20010904//EN"
 "http://www.w3.org/TR/2001/REC-SVG-20010904/DTD/svg10.dtd">
<svg version="1.0" xmlns="http://www.w3.org/2000/svg"
 width="500.000000pt" height="500.000000pt" viewBox="0 0 500.000000 500.000000"
 preserveAspectRatio="xMidYMid meet">
<metadata>
Created by potrace 1.14, written by Peter Selinger 2001-2017
</metadata>
<g transform="translate(0.000000,500.000000) scale(0.100000,-0.100000)"
fill="#000000" stroke="none">
<path d="M2325 4984 c-216 -22 -372 -51 -532 -100 -407 -123 -746 -326 -1049
-628 -401 -402 -635 -879 -716 -1461 -16 -116 -16 -484 0 -600 81 -582 315
-1059 716 -1461 402 -401 879 -635 1461 -716 116 -16 484 -16 600 0 582 81
1059 315 1461 716 401 402 635 879 716 1461 7 50 13 185 13 300 0 116 -6 251
-13 300 -81 582 -315 1059 -716 1461 -398 397 -876 633 -1446 714 -79 11 -427
21 -495 14z m431 -1012 c243 -305 392 -654 455 -1067 31 -200 31 -540 0 -742
-63 -413 -216 -768 -461 -1069 l-62 -75 -46 37 c-26 21 -48 39 -50 40 -2 1 29
50 68 110 167 257 285 543 340 828 35 183 44 288 44 506 -1 231 -15 363 -60
568 -55 246 -181 541 -323 756 -40 60 -69 112 -64 117 15 15 88 68 93 68 3 0
33 -35 66 -77z m-675 -965 c38 -25 79 -97 79 -138 0 -47 -42 -111 -90 -136
-54 -29 -84 -29 -140 0 -86 43 -115 135 -69 217 43 76 150 104 220 57z m0
-1120 c38 -25 79 -97 79 -138 0 -47 -42 -111 -90 -136 -54 -29 -84 -29 -140 0
-86 43 -115 135 -69 217 43 76 150 104 220 57z"/>
</g>
</svg>
